# xmcd
#
# Track frame offsets: 
#        150
#        16944
#        42774
#        75053
#        94805
#        115805
#        140012
#        169305
#        199547
#        227640
#        255310
#        273822
#        286290
#        305631
#        327358
#        353480
#        381620
#
# Disc length: 5441 seconds
#
# Revision: 0
# Processed by: cddbd v1.5.2PL0 Copyright (c) Steve Scherf et al.
# Submitted via: ExactAudioCopy v1.0b3
#
DISCID=e2153f11
DTITLE=Various Artist - Nhac Tuyen
DYEAR=1973
DGENRE=
TTITLE0=Duy Khanh, Hoa Mi - Nhat la vang roi
TTITLE1=Duy Khanh - Goi ten em
TTITLE2=Hung Cuong - Nhu mong hai hung
TTITLE3=Mai Le Huyen - Anh den ben toi
TTITLE4=Duy Khanh, Hoa Mi - Mua hoa man no
TTITLE5=Duy Khanh - Tra loi thu em
TTITLE6=Duy Khanh - Am lai tinh que
TTITLE7=Khanh Ly - Kinh chieu
TTITLE8=Truc Mai - Chieu nho que
TTITLE9=Duy Khanh - Loi dang cho mot cuoc tinh
TTITLE10=Duy Khanh - Dua em vao vuon dia dang
TTITLE11=Duy Khanh - Duong chung ta di
TTITLE12=Duy Khanh - Anh den ben toi
TTITLE13=Duy Khanh - Van Hue ngay xua
TTITLE14=Duy Khanh - Xe tang va con pho
TTITLE15=Hoang Oanh - Buon thi khong buon
TTITLE16=Thanh Tuyen - Khi xua em yeu vao doi
EXTD=
EXTT0=
EXTT1=
EXTT2=
EXTT3=
EXTT4=
EXTT5=
EXTT6=
EXTT7=
EXTT8=
EXTT9=
EXTT10=
EXTT11=
EXTT12=
EXTT13=
EXTT14=
EXTT15=
EXTT16=
PLAYORDER=
